<?xml version="1.0" encoding="us-ascii" standalone="no"?><svg xmlns="http://www.w3.org/2000/svg" xmlns:xlink="http://www.w3.org/1999/xlink" contentStyleType="text/css" height="628px" preserveAspectRatio="none" style="width:761px;height:628px;background:#FFFFFF;" version="1.1" viewBox="0 0 761 628" width="761px" zoomAndPan="magnify"><defs/><g><!--cluster tsvc--><g id="cluster_tsvc"><rect fill="none" height="124" rx="2.5" ry="2.5" style="stroke:#181818;stroke-width:1.0;" width="219.5" x="396" y="124"/><rect fill="none" height="10" style="stroke:#181818;stroke-width:1.0;" width="15" x="595.5" y="129"/><rect fill="none" height="2" style="stroke:#181818;stroke-width:1.0;" width="4" x="593.5" y="131"/><rect fill="none" height="2" style="stroke:#181818;stroke-width:1.0;" width="4" x="593.5" y="135"/><text fill="#000000" font-family="sans-serif" font-size="14" font-weight="bold" lengthAdjust="spacing" textLength="134" x="438.75" y="151.9659">Transaction Service</text></g><!--cluster asvc--><g id="cluster_asvc"><rect fill="none" height="124" rx="2.5" ry="2.5" style="stroke:#181818;stroke-width:1.0;" width="264.5" x="19.5" y="302"/><rect fill="none" height="10" style="stroke:#181818;stroke-width:1.0;" width="15" x="264" y="307"/><rect fill="none" height="2" style="stroke:#181818;stroke-width:1.0;" width="4" x="262" y="309"/><rect fill="none" height="2" style="stroke:#181818;stroke-width:1.0;" width="4" x="262" y="313"/><text fill="#000000" font-family="sans-serif" font-size="14" font-weight="bold" lengthAdjust="spacing" textLength="110" x="96.75" y="329.9659">Account Service</text></g><!--cluster db--><g id="cluster_db"><path d="M140.5,490 C140.5,480 212,480 212,480 C212,480 283.5,480 283.5,490 L283.5,601 C283.5,611 212,611 212,611 C212,611 140.5,611 140.5,601 L140.5,490 " fill="none" style="stroke:#181818;stroke-width:1.0;"/><path d="M140.5,490 C140.5,500 212,500 212,500 C212,500 283.5,500 283.5,490 " fill="none" style="stroke:#181818;stroke-width:1.0;"/><text fill="#000000" font-family="sans-serif" font-size="14" font-weight="bold" lengthAdjust="spacing" textLength="18" x="203" y="516.9659">db</text></g><!--cluster mtx--><g id="cluster_mtx"><rect fill="none" height="124" rx="2.5" ry="2.5" style="stroke:#181818;stroke-width:1.0;" width="304.5" x="341.5" y="302"/><rect fill="none" height="10" style="stroke:#181818;stroke-width:1.0;" width="15" x="626" y="307"/><rect fill="none" height="2" style="stroke:#181818;stroke-width:1.0;" width="4" x="624" y="309"/><rect fill="none" height="2" style="stroke:#181818;stroke-width:1.0;" width="4" x="624" y="313"/><text fill="#000000" font-family="sans-serif" font-size="14" font-weight="bold" lengthAdjust="spacing" textLength="223" x="382.25" y="329.9659">Oracle MicroTX LRA Coordinator</text></g><text fill="#000000" font-family="sans-serif" font-size="14" lengthAdjust="spacing" textLength="54" x="387" y="101.898">transfer</text><rect fill="#F1F1F1" height="12" style="stroke:#181818;stroke-width:1.5;" width="12" x="408" y="118"/><text fill="#000000" font-family="sans-serif" font-size="14" lengthAdjust="spacing" textLength="62" x="473" y="101.898">complete</text><rect fill="#F1F1F1" height="12" style="stroke:#181818;stroke-width:1.5;" width="12" x="498" y="118"/><text fill="#000000" font-family="sans-serif" font-size="14" lengthAdjust="spacing" textLength="82" x="556.5" y="101.898">compensate</text><rect fill="#F1F1F1" height="12" style="stroke:#181818;stroke-width:1.5;" width="12" x="591.5" y="118"/><text fill="#000000" font-family="sans-serif" font-size="14" lengthAdjust="spacing" textLength="63" x="6" y="279.898">withdraw</text><rect fill="#F1F1F1" height="12" style="stroke:#181818;stroke-width:1.5;" width="12" x="31.5" y="296"/><text fill="#000000" font-family="sans-serif" font-size="14" lengthAdjust="spacing" textLength="36" x="86" y="279.898">enter</text><rect fill="#F1F1F1" height="12" style="stroke:#181818;stroke-width:1.5;" width="12" x="98" y="296"/><text fill="#000000" font-family="sans-serif" font-size="14" lengthAdjust="spacing" textLength="62" x="235" y="279.898">complete</text><rect fill="#F1F1F1" height="12" style="stroke:#181818;stroke-width:1.5;" width="12" x="260" y="296"/><text fill="#000000" font-family="sans-serif" font-size="14" lengthAdjust="spacing" textLength="82" x="136.5" y="279.898">compensate</text><rect fill="#F1F1F1" height="12" style="stroke:#181818;stroke-width:1.5;" width="12" x="171.5" y="296"/><text fill="#000000" font-family="sans-serif" font-size="14" lengthAdjust="spacing" textLength="80" x="118.5" y="457.898">Get Balance</text><rect fill="#F1F1F1" height="12" style="stroke:#181818;stroke-width:1.5;" width="12" x="152.5" y="474"/><text fill="#000000" font-family="sans-serif" font-size="14" lengthAdjust="spacing" textLength="106" x="212.5" y="457.898">Update Balance</text><rect fill="#F1F1F1" height="12" style="stroke:#181818;stroke-width:1.5;" width="12" x="259.5" y="474"/><text fill="#000000" font-family="sans-serif" font-size="14" lengthAdjust="spacing" textLength="56" x="331.5" y="279.898">startLRA</text><rect fill="#F1F1F1" height="12" style="stroke:#181818;stroke-width:1.5;" width="12" x="353.5" y="296"/><text fill="#000000" font-family="sans-serif" font-size="14" lengthAdjust="spacing" textLength="50" x="423" y="279.898">joinLRA</text><rect fill="#F1F1F1" height="12" style="stroke:#181818;stroke-width:1.5;" width="12" x="442" y="296"/><text fill="#000000" font-family="sans-serif" font-size="14" lengthAdjust="spacing" textLength="59" x="508.5" y="279.898">closeLRA</text><rect fill="#F1F1F1" height="12" style="stroke:#181818;stroke-width:1.5;" width="12" x="532" y="296"/><text fill="#000000" font-family="sans-serif" font-size="14" lengthAdjust="spacing" textLength="68" x="594" y="279.898">cancelLRA</text><rect fill="#F1F1F1" height="12" style="stroke:#181818;stroke-width:1.5;" width="12" x="622" y="296"/><!--entity curl--><g id="elem_curl"><ellipse cx="414" cy="14" fill="#F1F1F1" rx="8" ry="8" style="stroke:#181818;stroke-width:0.5;"/><text fill="#000000" font-family="sans-serif" font-size="14" lengthAdjust="spacing" textLength="680" x="74" y="45.9659">curl -X PUT --json '{"from":"AB448", "to":"AB447", "amount":"100"}' localhost:8084/transaction/transfer</text></g><!--link curl to tp--><g id="link_curl_tp"><path d="M414,23.12 C414,44.31 414,100.85 414,118 " fill="none" id="curl-tp" style="stroke:#181818;stroke-width:1.0;"/><path d="M421.0711,65.0039 A10,10 0 0 0 406.9289 65.0039" fill="none" style="stroke:#181818;stroke-width:1.5;"/><ellipse cx="414" cy="72.075" fill="#FFFFFF" rx="6" ry="6" style="stroke:#181818;stroke-width:1.5;"/></g><!--link tsvc to wp--><g id="link_tsvc_wp"><path d="M395.6153,220.0566 C394.8194,220.1222 394.0195,220.1884 393.2159,220.2551 C390.0012,220.5218 386.725,220.7968 383.3928,221.0801 C376.7285,221.6468 369.8401,222.2467 362.7714,222.8794 C348.6341,224.1449 333.7757,225.542 318.5464,227.0683 C288.0878,230.1209 256.1456,233.6906 225.5213,237.7587 C164.2725,245.895 108.295,256.025 80,268 C64.63,274.51 50.11,288.18 42.84,295.72 " fill="none" id="tsvc-wp" style="stroke:#181818;stroke-width:1.0;"/><path d="M233.4619,243.8371 A10,10 0 0 0 231.5996 229.8181" fill="none" style="stroke:#181818;stroke-width:1.5;"/><ellipse cx="225.5213" cy="237.7587" fill="#FFFFFF" rx="6" ry="6" style="stroke:#181818;stroke-width:1.5;"/></g><!--link tsvc to ep--><g id="link_tsvc_ep"><path d="M395.3688,219.2177 C395.01,219.2456 394.6505,219.2737 394.2903,219.3018 C391.4085,219.527 388.4796,219.7602 385.5083,220.0016 C379.5656,220.4844 373.453,220.9997 367.2072,221.549 C354.7155,222.6475 341.6906,223.8816 328.4256,225.2613 C301.8956,228.0206 274.405,231.3625 248.2975,235.3675 C196.0825,243.3775 149.4,254.04 127,268 C116.33,274.65 109.3,288.26 106.06,295.76 " fill="none" id="tsvc-ep" style="stroke:#181818;stroke-width:1.0;"/><path d="M256.359,241.2846 A10,10 0 0 0 254.2146 227.306" fill="none" style="stroke:#181818;stroke-width:1.5;"/><ellipse cx="248.2975" cy="235.3675" fill="#FFFFFF" rx="6" ry="6" style="stroke:#181818;stroke-width:1.5;"/></g><!--link asvc to getBalance--><g id="link_asvc_getBalance"><path d="M191.6997,426.3168 C191.5679,426.5292 191.4358,426.742 191.3036,426.955 C190.7748,427.8072 190.2432,428.6639 189.7096,429.5237 C187.5751,432.9632 185.4091,436.4534 183.2662,439.9063 C174.695,453.7175 169.6585,461.8318 165.3335,468.8018 " fill="none" id="asvc-to-getBalance" style="stroke:#181818;stroke-width:1.0;"/><polygon fill="#181818" points="162.17,473.9,170.3141,468.3617,164.8063,469.6515,163.5165,464.1436,162.17,473.9" style="stroke:#181818;stroke-width:1.0;"/></g><!--link asvc to updateBalance--><g id="link_asvc_updateBalance"><path d="M233.903,426.3168 C234.0325,426.5292 234.162,426.742 234.2918,426.955 C234.8109,427.8072 235.3327,428.6639 235.8565,429.5237 C237.9516,432.9632 240.0778,436.4534 242.1812,439.9063 C250.595,453.7175 255.524,461.8056 259.769,468.7756 " fill="none" id="asvc-to-updateBalance" style="stroke:#181818;stroke-width:1.0;"/><polygon fill="#181818" points="262.89,473.9,261.6248,464.1327,260.2892,469.6297,254.7923,468.294,262.89,473.9" style="stroke:#181818;stroke-width:1.0;"/></g><!--link tsvc to startlra--><g id="link_tsvc_startlra"><path d="M431.0065,248.1508 C430.9226,248.2121 430.8386,248.2735 430.7546,248.3349 C430.5866,248.4577 430.4185,248.5807 430.2503,248.7037 C429.5775,249.1957 428.9029,249.6891 428.2271,250.1837 C425.5236,252.162 422.7988,254.1585 420.078,256.1555 C414.6363,260.1494 409.21,264.145 404,268 C390.18,278.22 374.04,290.38 365.68,296.7 " fill="none" id="tsvc-startlra" style="stroke:#181818;stroke-width:1.0;"/><path d="M413.8901,269.4783 A10,10 0 0 0 405.4783 258.1099" fill="none" style="stroke:#181818;stroke-width:1.5;"/><ellipse cx="404" cy="268" fill="#FFFFFF" rx="6" ry="6" style="stroke:#181818;stroke-width:1.5;"/></g><!--link tsvc to joinlra--><g id="link_tsvc_joinlra"><path d="M466.1638,248.3168 C466.0905,248.5292 466.0172,248.742 465.9437,248.955 C465.6498,249.8072 465.3544,250.6639 465.0579,251.5237 C463.8717,254.9632 462.6681,258.4534 461.4775,261.9063 C456.715,275.7175 452.16,288.93 449.76,295.9 " fill="none" id="tsvc-joinlra" style="stroke:#181818;stroke-width:1.0;"/><path d="M463.7223,277.088 A10,10 0 0 0 450.3522 272.4792" fill="none" style="stroke:#181818;stroke-width:1.5;"/><ellipse cx="454.7328" cy="281.4686" fill="#FFFFFF" rx="6" ry="6" style="stroke:#181818;stroke-width:1.5;"/></g><!--link asvc to joinlra--><g id="link_asvc_joinlra"><path d="M284.1927,364.2418 C284.3982,364.167 284.6041,364.092 284.8102,364.0169 C285.2223,363.8668 285.6356,363.7163 286.0499,363.5654 C286.8786,363.2635 287.7115,362.96 288.5484,362.655 C290.2224,362.0449 291.9126,361.4286 293.6179,360.8065 C300.439,358.3182 307.5009,355.7372 314.7238,353.0913 C343.615,342.5075 375.08,330.885 404,320 C417.49,314.92 433.23,308.79 441.75,305.46 " fill="none" id="asvc-joinlra" style="stroke:#181818;stroke-width:1.0;"/><path d="M350.2645,332.4832 A10,10 0 0 0 355.1757 345.7452" fill="none" style="stroke:#181818;stroke-width:1.5;"/><ellipse cx="359.3511" cy="336.6586" fill="#FFFFFF" rx="6" ry="6" style="stroke:#181818;stroke-width:1.5;"/></g><!--link asvc to cancelra--><g id="link_asvc_cancelra"><path d="M284.081,380.1169 C284.3843,380.0713 284.6883,380.0256 284.993,379.9797 C285.6026,379.888 286.2151,379.7956 286.8306,379.7027 C288.0616,379.5168 289.3045,379.3284 290.559,379.1376 C295.577,378.3746 300.7807,377.5726 306.1526,376.7323 C316.8962,375.0516 328.3121,373.2172 340.2586,371.2325 C364.1516,367.2631 390.1669,362.6925 417.1713,357.5475 C471.18,347.2575 529.145,334.67 582,320 C596.6,315.95 613.14,309.31 621.86,305.64 " fill="none" id="asvc-cancelra" style="stroke:#181818;stroke-width:1.0;"/><path d="M408.9017,351.9248 A10,10 0 0 0 411.5485 365.817" fill="none" style="stroke:#181818;stroke-width:1.5;"/><ellipse cx="417.1713" cy="357.5475" fill="#FFFFFF" rx="6" ry="6" style="stroke:#181818;stroke-width:1.5;"/></g><!--link tsvc to closelra--><g id="link_tsvc_closelra"><path d="M501.6657,248.3168 C501.8122,248.5292 501.9589,248.742 502.1058,248.955 C502.6935,249.8072 503.2843,250.6639 503.8773,251.5237 C506.2492,254.9632 508.6563,258.4534 511.0375,261.9063 C520.5625,275.7175 529.675,288.93 534.48,295.9 " fill="none" id="tsvc-closelra" style="stroke:#181818;stroke-width:1.0;"/><path d="M526.3354,271.6331 A10,10 0 0 0 514.6933 279.6619" fill="none" style="stroke:#181818;stroke-width:1.5;"/><ellipse cx="524.5288" cy="281.4686" fill="#FFFFFF" rx="6" ry="6" style="stroke:#181818;stroke-width:1.5;"/></g><!--link tsvc to cancelra--><g id="link_tsvc_cancelra"><path d="M547.0392,248.0754 C547.1541,248.137 547.2689,248.1985 547.3837,248.2602 C547.6134,248.3834 547.8432,248.5068 548.073,248.6304 C548.5327,248.8775 548.9927,249.1253 549.4529,249.3737 C553.1343,251.3609 556.829,253.3879 560.502,255.4423 C567.8481,259.5513 575.1075,263.77 582,268 C596.91,277.15 613.32,289.53 621.94,296.23 " fill="none" id="tsvc-cancelra" style="stroke:#181818;stroke-width:1.0;"/><path d="M579.672,258.2748 A10,10 0 0 0 572.2748 270.328" fill="none" style="stroke:#181818;stroke-width:1.5;"/><ellipse cx="582" cy="268" fill="#FFFFFF" rx="6" ry="6" style="stroke:#181818;stroke-width:1.5;"/></g><!--link mtx to acomplete--><g id="link_mtx_acomplete"><path d="M341.1857,328.959 C340.8702,328.8501 340.5552,328.7413 340.2407,328.6327 C339.6117,328.4156 338.9848,328.1991 338.3601,327.9835 C328.3647,324.5325 318.923,321.2726 310.3639,318.3173 C293.2456,312.4069 279.6575,307.715 272.23,305.15 " fill="none" id="mtx-acomplete" style="stroke:#181818;stroke-width:1.0;"/><path d="M314.74,327.309 A10,10 0 0 0 319.3555 313.9412" fill="none" style="stroke:#181818;stroke-width:1.5;"/><ellipse cx="310.3639" cy="318.3173" fill="#FFFFFF" rx="6" ry="6" style="stroke:#181818;stroke-width:1.5;"/></g><!--link mtx to tcomplete--><g id="link_mtx_tcomplete"><path d="M646.1072,345.1534 C646.2257,345.0575 646.344,344.9614 646.4621,344.865 C646.6983,344.6724 646.9338,344.4789 647.1685,344.2847 C648.1073,343.5076 649.0341,342.7176 649.9481,341.9144 C657.26,335.4888 663.75,328.22 669,320 C681.44,300.52 678.6,289.02 669,268 C634.04,191.45 535.63,140.13 510.11,127.85 " fill="none" id="mtx-tcomplete" style="stroke:#181818;stroke-width:1.0;"/><path d="M587.4664,183.7179 A10,10 0 0 0 595.9091 172.3724" fill="none" style="stroke:#181818;stroke-width:1.5;"/><ellipse cx="586.015" cy="173.8238" fill="#FFFFFF" rx="6" ry="6" style="stroke:#181818;stroke-width:1.5;"/></g><!--link mtx to acompensate--><g id="link_mtx_acompensate"><path d="M340.9183,353.1388 C340.239,352.9752 339.559,352.8112 338.8785,352.6468 C337.5174,352.3179 336.1541,351.9872 334.7888,351.6549 C329.3274,350.3253 323.8333,348.9678 318.3203,347.5834 C307.2942,344.8147 296.1923,341.9387 285.1242,338.9639 C262.9881,333.0144 240.9875,326.67 220,320 C206.66,315.76 191.56,309.2 183.6,305.59 " fill="none" id="mtx-acompensate" style="stroke:#181818;stroke-width:1.0;"/><path d="M256.9493,338.515 A10,10 0 0 0 260.8943 324.9342" fill="none" style="stroke:#181818;stroke-width:1.5;"/><ellipse cx="252.1314" cy="329.7521" fill="#FFFFFF" rx="6" ry="6" style="stroke:#181818;stroke-width:1.5;"/></g><!--link mtx to tcompensate--><g id="link_mtx_tcompensate"><path d="M646.1141,362.9609 C646.3997,362.8227 646.6849,362.6837 646.9698,362.5441 C649.2486,361.4271 651.5047,360.2647 653.7325,359.055 C671.555,349.3775 687.57,336.675 699,320 C747.71,248.93 631.7,151.37 603.84,129.48 " fill="none" id="mtx-tcompensate" style="stroke:#181818;stroke-width:1.0;"/><path d="M678.6112,216.1809 A10,10 0 0 0 690.0172 207.8201" fill="none" style="stroke:#181818;stroke-width:1.5;"/><ellipse cx="680.1338" cy="206.2975" fill="#FFFFFF" rx="6" ry="6" style="stroke:#181818;stroke-width:1.5;"/></g><!--SRC=[XL9DQm8n4BtdLmovs4ENMX0g7WfgePUMbbR1wvYDTIKcItPq2-9_Rv9rinkaxItl8vCtaoaqIRj18O6BWrMGhU1zkO0isrL6m-34DzRi-OHFPwFHcDy29tD13nxXtXmqEUP-EEJd0IWZK6rDHPFnS3ow8ukwGa65qSrv8oq7hC2_nPWm-z9egGduedF2fxJ7GiXWfEeeJWoWDDQvaXfKiYZuIahIvKwB4bcw-dr3WzcPCJRlSao5y1qb6T1bW2v4NT0sjrW7hIuZB_qe0ob_IuR_9SCqsHCIhh6IaAzx0PubmGmLwak-BqaN62tBCdSb4jSXKAtnd4p_pQ9G4buBOSrY1IyVKvWRO_D28vccfprzTmagGalE5PG0bCMexaoXMz6V-vfGffAj642Y-cmgoW4vsVyHQzRpPfZvZ_ThqO2w3zpWmsTbsMD_Af5BPz2x67leg3Ov_i74XDsrs1DTkvWROaDrYn0fkgRwsv3w6l87]--></g></svg>