<?xml version="1.0" encoding="us-ascii" standalone="no"?><svg xmlns="http://www.w3.org/2000/svg" xmlns:xlink="http://www.w3.org/1999/xlink" contentStyleType="text/css" height="490px" preserveAspectRatio="none" style="width:541px;height:490px;background:#FFFFFF;" version="1.1" viewBox="0 0 541 490" width="541px" zoomAndPan="magnify"><defs/><g><rect fill="#0000FF" height="268.6481" style="stroke:#181818;stroke-width:1.0;" width="10" x="190.5" y="117.7739"/><rect fill="#FFD700" height="98.118" style="stroke:#181818;stroke-width:1.0;" width="10" x="349.5" y="149.4799"/><rect fill="#FFD700" height="66.412" style="stroke:#181818;stroke-width:1.0;" width="10" x="349.5" y="282.304"/><line style="stroke:#181818;stroke-width:0.5;stroke-dasharray:5.0,5.0;" x1="23" x2="23" y1="84.0679" y2="407.4221"/><line style="stroke:#181818;stroke-width:0.5;stroke-dasharray:5.0,5.0;" x1="195" x2="195" y1="84.0679" y2="407.4221"/><line style="stroke:#181818;stroke-width:0.5;stroke-dasharray:5.0,5.0;" x1="354.5" x2="354.5" y1="84.0679" y2="407.4221"/><line style="stroke:#181818;stroke-width:0.5;stroke-dasharray:5.0,5.0;" x1="506.5" x2="506.5" y1="84.0679" y2="407.4221"/><text fill="#000000" font-family="sans-serif" font-size="14" lengthAdjust="spacing" textLength="31" x="5" y="79.9659">User</text><ellipse cx="23.5" cy="13.5" fill="#E2E2F0" rx="8" ry="8" style="stroke:#181818;stroke-width:0.5;"/><path d="M23.5,21.5 L23.5,48.5 M10.5,29.5 L36.5,29.5 M23.5,48.5 L10.5,63.5 M23.5,48.5 L36.5,63.5 " fill="none" style="stroke:#181818;stroke-width:0.5;"/><text fill="#000000" font-family="sans-serif" font-size="14" lengthAdjust="spacing" textLength="31" x="5" y="421.388">User</text><ellipse cx="23.5" cy="433.99" fill="#E2E2F0" rx="8" ry="8" style="stroke:#181818;stroke-width:0.5;"/><path d="M23.5,441.99 L23.5,468.99 M10.5,449.99 L36.5,449.99 M23.5,468.99 L10.5,483.99 M23.5,468.99 L36.5,483.99 " fill="none" style="stroke:#181818;stroke-width:0.5;"/><rect fill="#E2E2F0" height="33.0679" rx="2.5" ry="2.5" style="stroke:#181818;stroke-width:0.5;" width="145" x="123" y="50"/><text fill="#000000" font-family="sans-serif" font-size="14" lengthAdjust="spacing" textLength="131" x="130" y="71.9659">Transaction Service</text><rect fill="#E2E2F0" height="33.0679" rx="2.5" ry="2.5" style="stroke:#181818;stroke-width:0.5;" width="145" x="123" y="406.4221"/><text fill="#000000" font-family="sans-serif" font-size="14" lengthAdjust="spacing" textLength="131" x="130" y="428.388">Transaction Service</text><rect fill="#E2E2F0" height="33.0679" rx="2.5" ry="2.5" style="stroke:#181818;stroke-width:0.5;" width="120" x="294.5" y="50"/><text fill="#000000" font-family="sans-serif" font-size="14" lengthAdjust="spacing" textLength="106" x="301.5" y="71.9659">Account Service</text><rect fill="#E2E2F0" height="33.0679" rx="2.5" ry="2.5" style="stroke:#181818;stroke-width:0.5;" width="120" x="294.5" y="406.4221"/><text fill="#000000" font-family="sans-serif" font-size="14" lengthAdjust="spacing" textLength="106" x="301.5" y="428.388">Account Service</text><text fill="#000000" font-family="sans-serif" font-size="14" lengthAdjust="spacing" textLength="19" x="494" y="79.9659">DB</text><path d="M488.5,29 C488.5,19 506.5,19 506.5,19 C506.5,19 524.5,19 524.5,29 L524.5,55 C524.5,65 506.5,65 506.5,65 C506.5,65 488.5,65 488.5,55 L488.5,29 " fill="#E2E2F0" style="stroke:#181818;stroke-width:1.5;"/><path d="M488.5,29 C488.5,39 506.5,39 506.5,39 C506.5,39 524.5,39 524.5,29 " fill="none" style="stroke:#181818;stroke-width:1.5;"/><text fill="#000000" font-family="sans-serif" font-size="14" lengthAdjust="spacing" textLength="19" x="494" y="421.388">DB</text><path d="M488.5,435.49 C488.5,425.49 506.5,425.49 506.5,425.49 C506.5,425.49 524.5,425.49 524.5,435.49 L524.5,461.49 C524.5,471.49 506.5,471.49 506.5,471.49 C506.5,471.49 488.5,471.49 488.5,461.49 L488.5,435.49 " fill="#E2E2F0" style="stroke:#181818;stroke-width:1.5;"/><path d="M488.5,435.49 C488.5,445.49 506.5,445.49 506.5,445.49 C506.5,445.49 524.5,445.49 524.5,435.49 " fill="none" style="stroke:#181818;stroke-width:1.5;"/><rect fill="#0000FF" height="268.6481" style="stroke:#181818;stroke-width:1.0;" width="10" x="190.5" y="117.7739"/><rect fill="#FFD700" height="98.118" style="stroke:#181818;stroke-width:1.0;" width="10" x="349.5" y="149.4799"/><rect fill="#FFD700" height="66.412" style="stroke:#181818;stroke-width:1.0;" width="10" x="349.5" y="282.304"/><polygon fill="#181818" points="178.5,113.7739,188.5,117.7739,178.5,121.7739,182.5,117.7739" style="stroke:#181818;stroke-width:1.0;"/><line style="stroke:#181818;stroke-width:1.0;" x1="23.5" x2="184.5" y1="117.7739" y2="117.7739"/><text fill="#000000" font-family="sans-serif" font-size="13" lengthAdjust="spacing" textLength="148" x="30.5" y="111.9649">transfer 100$ from A to B</text><polygon fill="#181818" points="337.5,145.4799,347.5,149.4799,337.5,153.4799,341.5,149.4799" style="stroke:#181818;stroke-width:1.0;"/><line style="stroke:#181818;stroke-width:1.0;" x1="200.5" x2="343.5" y1="149.4799" y2="149.4799"/><text fill="#000000" font-family="sans-serif" font-size="13" lengthAdjust="spacing" textLength="130" x="207.5" y="143.6709">withdraw 100$ from A</text><polygon fill="#181818" points="370.5,177.186,360.5,181.186,370.5,185.186,366.5,181.186" style="stroke:#181818;stroke-width:1.0;"/><line style="stroke:#181818;stroke-width:1.0;" x1="364.5" x2="505.5" y1="181.186" y2="181.186"/><text fill="#000000" font-family="sans-serif" font-size="13" lengthAdjust="spacing" textLength="123" x="376.5" y="175.377">Check enough funds</text><polygon fill="#181818" points="494.5,208.892,504.5,212.892,494.5,216.892,498.5,212.892" style="stroke:#181818;stroke-width:1.0;"/><line style="stroke:#181818;stroke-width:1.0;" x1="359.5" x2="500.5" y1="212.892" y2="212.892"/><text fill="#000000" font-family="sans-serif" font-size="13" lengthAdjust="spacing" textLength="66" x="366.5" y="207.083">deduct 100</text><polygon fill="#181818" points="211.5,243.598,201.5,247.598,211.5,251.598,207.5,247.598" style="stroke:#181818;stroke-width:1.0;"/><line style="stroke:#181818;stroke-width:1.0;stroke-dasharray:2.0,2.0;" x1="205.5" x2="353.5" y1="247.598" y2="247.598"/><text fill="#000000" font-family="sans-serif" font-size="13" lengthAdjust="spacing" textLength="42" x="217.5" y="241.789">200 OK</text><path d="M364,225.892 L364,252.892 L422,252.892 L422,235.892 L412,225.892 L364,225.892 " fill="#FEFFDD" style="stroke:#181818;stroke-width:0.5;"/><path d="M412,225.892 L412,235.892 L422,235.892 L412,225.892 " fill="#FEFFDD" style="stroke:#181818;stroke-width:0.5;"/><text fill="#000000" font-family="sans-serif" font-size="13" lengthAdjust="spacing" textLength="37" x="370" y="244.789">JTA TX</text><polygon fill="#181818" points="337.5,278.304,347.5,282.304,337.5,286.304,341.5,282.304" style="stroke:#181818;stroke-width:1.0;"/><line style="stroke:#181818;stroke-width:1.0;" x1="200.5" x2="343.5" y1="282.304" y2="282.304"/><text fill="#000000" font-family="sans-serif" font-size="13" lengthAdjust="spacing" textLength="90" x="207.5" y="276.495">enter 100$ to B</text><polygon fill="#181818" points="494.5,310.01,504.5,314.01,494.5,318.01,498.5,314.01" style="stroke:#181818;stroke-width:1.0;"/><line style="stroke:#181818;stroke-width:1.0;" x1="359.5" x2="500.5" y1="314.01" y2="314.01"/><text fill="#000000" font-family="sans-serif" font-size="13" lengthAdjust="spacing" textLength="47" x="366.5" y="308.201">add 100</text><polygon fill="#181818" points="211.5,344.716,201.5,348.716,211.5,352.716,207.5,348.716" style="stroke:#181818;stroke-width:1.0;"/><line style="stroke:#181818;stroke-width:1.0;stroke-dasharray:2.0,2.0;" x1="205.5" x2="353.5" y1="348.716" y2="348.716"/><text fill="#000000" font-family="sans-serif" font-size="13" lengthAdjust="spacing" textLength="42" x="217.5" y="342.907">200 OK</text><path d="M364,327.01 L364,354.01 L422,354.01 L422,337.01 L412,327.01 L364,327.01 " fill="#FEFFDD" style="stroke:#181818;stroke-width:0.5;"/><path d="M412,327.01 L412,337.01 L422,337.01 L412,327.01 " fill="#FEFFDD" style="stroke:#181818;stroke-width:0.5;"/><text fill="#000000" font-family="sans-serif" font-size="13" lengthAdjust="spacing" textLength="37" x="370" y="345.907">JTA TX</text><polygon fill="#181818" points="34.5,382.4221,24.5,386.4221,34.5,390.4221,30.5,386.4221" style="stroke:#181818;stroke-width:1.0;"/><line style="stroke:#181818;stroke-width:1.0;stroke-dasharray:2.0,2.0;" x1="28.5" x2="194.5" y1="386.4221" y2="386.4221"/><text fill="#000000" font-family="sans-serif" font-size="13" lengthAdjust="spacing" textLength="79" x="40.5" y="380.6131">202 Accepted</text><path d="M205,364.716 L205,391.716 L267,391.716 L267,374.716 L257,364.716 L205,364.716 " fill="#FEFFDD" style="stroke:#181818;stroke-width:0.5;"/><path d="M257,364.716 L257,374.716 L267,374.716 L257,364.716 " fill="#FEFFDD" style="stroke:#181818;stroke-width:0.5;"/><text fill="#000000" font-family="sans-serif" font-size="13" lengthAdjust="spacing" textLength="41" x="211" y="383.6131">LRA TX</text><!--SRC=[bP31JiCm44Jl_efHu5PL2Zr622cb9q02qI1ntTYRnABObRDkVnyxIb5pGjnMupSpkwwr-83YO-HGW4R4DAWt2cArFP8J54qWDv8Mwnts74vMyqHAeFr9BzbQQn_JSCsHrfdRaL1B8sEtpQffbSfTM3_CILYjSDCU8bTPS6EN7k_AyXPTyD-e8HvRfMOss-RaoTVxWwbmjZAOGEThdvgf-tNghF0uiFu2En_x0LrqPhm0AJ43XatKaXDKO8d1OLEMU7rModbX1DiFel3Kr6W-5Jk3BF-n5pkv73DTiMmaO_vTzyjkaFwSZy9cwNXvNpX-0000]--></g></svg>